<mxfile host="Electron" modified="2023-11-25T12:03:53.295Z" agent="Mozilla/5.0 (Windows NT 10.0; Win64; x64) AppleWebKit/537.36 (KHTML, like Gecko) draw.io/22.1.2 Chrome/114.0.5735.289 Electron/25.9.4 Safari/537.36" etag="bJwnD2SEgVBW5p2SqLCC" version="22.1.2" type="device">
  <diagram name="Seite-1" id="EJ1bMYqss8g2FWKwbaSa">
    <mxGraphModel dx="1434" dy="956" grid="1" gridSize="10" guides="1" tooltips="1" connect="1" arrows="1" fold="1" page="1" pageScale="1" pageWidth="827" pageHeight="1169" math="0" shadow="0">
      <root>
        <mxCell id="0" />
        <mxCell id="1" parent="0" />
        <mxCell id="IprLaiHBzlhglAPSM-9q-1" value="Design Entwurf 0.1" style="shape=umlFrame;whiteSpace=wrap;html=1;pointerEvents=0;recursiveResize=0;container=1;collapsible=0;width=160;" vertex="1" parent="1">
          <mxGeometry x="40" y="180" width="530" height="580" as="geometry" />
        </mxCell>
        <mxCell id="IprLaiHBzlhglAPSM-9q-2" value="&lt;b&gt;ConnectionHandler&lt;/b&gt;" style="swimlane;fontStyle=0;align=center;verticalAlign=top;childLayout=stackLayout;horizontal=1;startSize=55;horizontalStack=0;resizeParent=1;resizeParentMax=0;resizeLast=0;collapsible=0;marginBottom=0;html=1;whiteSpace=wrap;" vertex="1" parent="IprLaiHBzlhglAPSM-9q-1">
          <mxGeometry x="50" y="490" width="140" height="63" as="geometry" />
        </mxCell>
        <mxCell id="IprLaiHBzlhglAPSM-9q-7" value="" style="line;strokeWidth=1;fillColor=none;align=left;verticalAlign=middle;spacingTop=-1;spacingLeft=3;spacingRight=3;rotatable=0;labelPosition=right;points=[];portConstraint=eastwest;" vertex="1" parent="IprLaiHBzlhglAPSM-9q-2">
          <mxGeometry y="55" width="140" height="8" as="geometry" />
        </mxCell>
        <mxCell id="IprLaiHBzlhglAPSM-9q-102" style="edgeStyle=orthogonalEdgeStyle;rounded=0;orthogonalLoop=1;jettySize=auto;html=1;entryX=0.5;entryY=0;entryDx=0;entryDy=0;" edge="1" parent="IprLaiHBzlhglAPSM-9q-1" source="IprLaiHBzlhglAPSM-9q-10" target="IprLaiHBzlhglAPSM-9q-64">
          <mxGeometry relative="1" as="geometry" />
        </mxCell>
        <mxCell id="IprLaiHBzlhglAPSM-9q-10" value="&lt;br&gt;&lt;b&gt;Controller&lt;/b&gt;" style="swimlane;fontStyle=0;align=center;verticalAlign=top;childLayout=stackLayout;horizontal=1;startSize=55;horizontalStack=0;resizeParent=1;resizeParentMax=0;resizeLast=0;collapsible=0;marginBottom=0;html=1;whiteSpace=wrap;" vertex="1" parent="IprLaiHBzlhglAPSM-9q-1">
          <mxGeometry x="50" y="180" width="140" height="123" as="geometry" />
        </mxCell>
        <mxCell id="IprLaiHBzlhglAPSM-9q-11" value="attributes" style="text;html=1;strokeColor=none;fillColor=none;align=center;verticalAlign=middle;spacingLeft=4;spacingRight=4;overflow=hidden;rotatable=0;points=[[0,0.5],[1,0.5]];portConstraint=eastwest;whiteSpace=wrap;" vertex="1" parent="IprLaiHBzlhglAPSM-9q-10">
          <mxGeometry y="55" width="140" height="20" as="geometry" />
        </mxCell>
        <mxCell id="IprLaiHBzlhglAPSM-9q-15" value="" style="line;strokeWidth=1;fillColor=none;align=left;verticalAlign=middle;spacingTop=-1;spacingLeft=3;spacingRight=3;rotatable=0;labelPosition=right;points=[];portConstraint=eastwest;" vertex="1" parent="IprLaiHBzlhglAPSM-9q-10">
          <mxGeometry y="75" width="140" height="8" as="geometry" />
        </mxCell>
        <mxCell id="IprLaiHBzlhglAPSM-9q-16" value="operations" style="text;html=1;strokeColor=none;fillColor=none;align=center;verticalAlign=middle;spacingLeft=4;spacingRight=4;overflow=hidden;rotatable=0;points=[[0,0.5],[1,0.5]];portConstraint=eastwest;whiteSpace=wrap;" vertex="1" parent="IprLaiHBzlhglAPSM-9q-10">
          <mxGeometry y="83" width="140" height="20" as="geometry" />
        </mxCell>
        <mxCell id="IprLaiHBzlhglAPSM-9q-17" value="start()" style="text;html=1;strokeColor=none;fillColor=none;align=left;verticalAlign=middle;spacingLeft=4;spacingRight=4;overflow=hidden;rotatable=0;points=[[0,0.5],[1,0.5]];portConstraint=eastwest;whiteSpace=wrap;" vertex="1" parent="IprLaiHBzlhglAPSM-9q-10">
          <mxGeometry y="103" width="140" height="20" as="geometry" />
        </mxCell>
        <mxCell id="IprLaiHBzlhglAPSM-9q-39" value="&lt;b&gt;&lt;br&gt;MsgInterpreter&lt;br&gt;&lt;/b&gt;" style="swimlane;fontStyle=0;align=center;verticalAlign=top;childLayout=stackLayout;horizontal=1;startSize=55;horizontalStack=0;resizeParent=1;resizeParentMax=0;resizeLast=0;collapsible=0;marginBottom=0;html=1;whiteSpace=wrap;" vertex="1" parent="IprLaiHBzlhglAPSM-9q-1">
          <mxGeometry x="270" y="260" width="140" height="123" as="geometry" />
        </mxCell>
        <mxCell id="IprLaiHBzlhglAPSM-9q-40" value="attributes" style="text;html=1;strokeColor=none;fillColor=none;align=center;verticalAlign=middle;spacingLeft=4;spacingRight=4;overflow=hidden;rotatable=0;points=[[0,0.5],[1,0.5]];portConstraint=eastwest;whiteSpace=wrap;" vertex="1" parent="IprLaiHBzlhglAPSM-9q-39">
          <mxGeometry y="55" width="140" height="20" as="geometry" />
        </mxCell>
        <mxCell id="IprLaiHBzlhglAPSM-9q-44" value="" style="line;strokeWidth=1;fillColor=none;align=left;verticalAlign=middle;spacingTop=-1;spacingLeft=3;spacingRight=3;rotatable=0;labelPosition=right;points=[];portConstraint=eastwest;" vertex="1" parent="IprLaiHBzlhglAPSM-9q-39">
          <mxGeometry y="75" width="140" height="8" as="geometry" />
        </mxCell>
        <mxCell id="IprLaiHBzlhglAPSM-9q-45" value="operations" style="text;html=1;strokeColor=none;fillColor=none;align=center;verticalAlign=middle;spacingLeft=4;spacingRight=4;overflow=hidden;rotatable=0;points=[[0,0.5],[1,0.5]];portConstraint=eastwest;whiteSpace=wrap;" vertex="1" parent="IprLaiHBzlhglAPSM-9q-39">
          <mxGeometry y="83" width="140" height="20" as="geometry" />
        </mxCell>
        <mxCell id="IprLaiHBzlhglAPSM-9q-46" value="operation1" style="text;html=1;strokeColor=none;fillColor=none;align=left;verticalAlign=middle;spacingLeft=4;spacingRight=4;overflow=hidden;rotatable=0;points=[[0,0.5],[1,0.5]];portConstraint=eastwest;whiteSpace=wrap;" vertex="1" parent="IprLaiHBzlhglAPSM-9q-39">
          <mxGeometry y="103" width="140" height="20" as="geometry" />
        </mxCell>
        <mxCell id="IprLaiHBzlhglAPSM-9q-101" style="edgeStyle=orthogonalEdgeStyle;rounded=0;orthogonalLoop=1;jettySize=auto;html=1;entryX=0.5;entryY=0;entryDx=0;entryDy=0;" edge="1" parent="IprLaiHBzlhglAPSM-9q-1" source="IprLaiHBzlhglAPSM-9q-48" target="IprLaiHBzlhglAPSM-9q-10">
          <mxGeometry relative="1" as="geometry" />
        </mxCell>
        <mxCell id="IprLaiHBzlhglAPSM-9q-48" value="&lt;br&gt;&lt;b&gt;UI&lt;/b&gt;" style="swimlane;fontStyle=0;align=center;verticalAlign=top;childLayout=stackLayout;horizontal=1;startSize=55;horizontalStack=0;resizeParent=1;resizeParentMax=0;resizeLast=0;collapsible=0;marginBottom=0;html=1;whiteSpace=wrap;" vertex="1" parent="IprLaiHBzlhglAPSM-9q-1">
          <mxGeometry x="50" y="50" width="140" height="103" as="geometry" />
        </mxCell>
        <mxCell id="IprLaiHBzlhglAPSM-9q-49" value="attributes" style="text;html=1;strokeColor=none;fillColor=none;align=center;verticalAlign=middle;spacingLeft=4;spacingRight=4;overflow=hidden;rotatable=0;points=[[0,0.5],[1,0.5]];portConstraint=eastwest;whiteSpace=wrap;" vertex="1" parent="IprLaiHBzlhglAPSM-9q-48">
          <mxGeometry y="55" width="140" height="20" as="geometry" />
        </mxCell>
        <mxCell id="IprLaiHBzlhglAPSM-9q-53" value="" style="line;strokeWidth=1;fillColor=none;align=left;verticalAlign=middle;spacingTop=-1;spacingLeft=3;spacingRight=3;rotatable=0;labelPosition=right;points=[];portConstraint=eastwest;" vertex="1" parent="IprLaiHBzlhglAPSM-9q-48">
          <mxGeometry y="75" width="140" height="8" as="geometry" />
        </mxCell>
        <mxCell id="IprLaiHBzlhglAPSM-9q-54" value="operations" style="text;html=1;strokeColor=none;fillColor=none;align=center;verticalAlign=middle;spacingLeft=4;spacingRight=4;overflow=hidden;rotatable=0;points=[[0,0.5],[1,0.5]];portConstraint=eastwest;whiteSpace=wrap;" vertex="1" parent="IprLaiHBzlhglAPSM-9q-48">
          <mxGeometry y="83" width="140" height="20" as="geometry" />
        </mxCell>
        <mxCell id="IprLaiHBzlhglAPSM-9q-105" style="edgeStyle=orthogonalEdgeStyle;rounded=0;orthogonalLoop=1;jettySize=auto;html=1;entryX=0.5;entryY=0;entryDx=0;entryDy=0;" edge="1" parent="IprLaiHBzlhglAPSM-9q-1" source="IprLaiHBzlhglAPSM-9q-64" target="IprLaiHBzlhglAPSM-9q-2">
          <mxGeometry relative="1" as="geometry" />
        </mxCell>
        <mxCell id="IprLaiHBzlhglAPSM-9q-64" value="&lt;br&gt;&lt;b&gt;Router&lt;/b&gt;" style="swimlane;fontStyle=0;align=center;verticalAlign=top;childLayout=stackLayout;horizontal=1;startSize=55;horizontalStack=0;resizeParent=1;resizeParentMax=0;resizeLast=0;collapsible=0;marginBottom=0;html=1;whiteSpace=wrap;" vertex="1" parent="IprLaiHBzlhglAPSM-9q-1">
          <mxGeometry x="50" y="333" width="140" height="123" as="geometry" />
        </mxCell>
        <mxCell id="IprLaiHBzlhglAPSM-9q-65" value="attributes" style="text;html=1;strokeColor=none;fillColor=none;align=center;verticalAlign=middle;spacingLeft=4;spacingRight=4;overflow=hidden;rotatable=0;points=[[0,0.5],[1,0.5]];portConstraint=eastwest;whiteSpace=wrap;" vertex="1" parent="IprLaiHBzlhglAPSM-9q-64">
          <mxGeometry y="55" width="140" height="20" as="geometry" />
        </mxCell>
        <mxCell id="IprLaiHBzlhglAPSM-9q-66" value="" style="line;strokeWidth=1;fillColor=none;align=left;verticalAlign=middle;spacingTop=-1;spacingLeft=3;spacingRight=3;rotatable=0;labelPosition=right;points=[];portConstraint=eastwest;" vertex="1" parent="IprLaiHBzlhglAPSM-9q-64">
          <mxGeometry y="75" width="140" height="8" as="geometry" />
        </mxCell>
        <mxCell id="IprLaiHBzlhglAPSM-9q-67" value="operations" style="text;html=1;strokeColor=none;fillColor=none;align=center;verticalAlign=middle;spacingLeft=4;spacingRight=4;overflow=hidden;rotatable=0;points=[[0,0.5],[1,0.5]];portConstraint=eastwest;whiteSpace=wrap;" vertex="1" parent="IprLaiHBzlhglAPSM-9q-64">
          <mxGeometry y="83" width="140" height="20" as="geometry" />
        </mxCell>
        <mxCell id="IprLaiHBzlhglAPSM-9q-68" value="start()" style="text;html=1;strokeColor=none;fillColor=none;align=left;verticalAlign=middle;spacingLeft=4;spacingRight=4;overflow=hidden;rotatable=0;points=[[0,0.5],[1,0.5]];portConstraint=eastwest;whiteSpace=wrap;" vertex="1" parent="IprLaiHBzlhglAPSM-9q-64">
          <mxGeometry y="103" width="140" height="20" as="geometry" />
        </mxCell>
        <mxCell id="IprLaiHBzlhglAPSM-9q-103" style="edgeStyle=orthogonalEdgeStyle;rounded=0;orthogonalLoop=1;jettySize=auto;html=1;entryX=-0.013;entryY=0.165;entryDx=0;entryDy=0;entryPerimeter=0;" edge="1" parent="IprLaiHBzlhglAPSM-9q-1" source="IprLaiHBzlhglAPSM-9q-10" target="IprLaiHBzlhglAPSM-9q-39">
          <mxGeometry relative="1" as="geometry" />
        </mxCell>
        <mxCell id="IprLaiHBzlhglAPSM-9q-104" style="edgeStyle=orthogonalEdgeStyle;rounded=0;orthogonalLoop=1;jettySize=auto;html=1;entryX=0.011;entryY=0.35;entryDx=0;entryDy=0;entryPerimeter=0;" edge="1" parent="IprLaiHBzlhglAPSM-9q-1" source="IprLaiHBzlhglAPSM-9q-64" target="IprLaiHBzlhglAPSM-9q-39">
          <mxGeometry relative="1" as="geometry" />
        </mxCell>
        <mxCell id="IprLaiHBzlhglAPSM-9q-106" style="edgeStyle=orthogonalEdgeStyle;rounded=0;orthogonalLoop=1;jettySize=auto;html=1;entryX=0.228;entryY=1;entryDx=0;entryDy=0;entryPerimeter=0;exitX=0.5;exitY=1;exitDx=0;exitDy=0;" edge="1" parent="IprLaiHBzlhglAPSM-9q-1" source="IprLaiHBzlhglAPSM-9q-2" target="IprLaiHBzlhglAPSM-9q-1">
          <mxGeometry relative="1" as="geometry">
            <mxPoint x="120" y="540" as="sourcePoint" />
          </mxGeometry>
        </mxCell>
        <mxCell id="IprLaiHBzlhglAPSM-9q-95" value="" style="shape=flexArrow;endArrow=classic;startArrow=classic;html=1;rounded=0;" edge="1" parent="IprLaiHBzlhglAPSM-9q-1">
          <mxGeometry width="100" height="100" relative="1" as="geometry">
            <mxPoint x="470" y="522.17" as="sourcePoint" />
            <mxPoint x="470" y="30" as="targetPoint" />
          </mxGeometry>
        </mxCell>
        <mxCell id="IprLaiHBzlhglAPSM-9q-72" value="send" style="ellipse;whiteSpace=wrap;html=1;" vertex="1" parent="1">
          <mxGeometry x="600" y="315" width="80" height="35" as="geometry" />
        </mxCell>
        <mxCell id="IprLaiHBzlhglAPSM-9q-75" value="&lt;span style=&quot;color: rgb(0, 0, 0); font-family: Helvetica; font-size: 12px; font-style: normal; font-variant-ligatures: normal; font-variant-caps: normal; font-weight: 400; letter-spacing: normal; orphans: 2; text-align: center; text-indent: 0px; text-transform: none; widows: 2; word-spacing: 0px; -webkit-text-stroke-width: 0px; background-color: rgb(251, 251, 251); text-decoration-thickness: initial; text-decoration-style: initial; text-decoration-color: initial; float: none; display: inline !important;&quot;&gt;senden&lt;/span&gt;" style="rounded=0;orthogonalLoop=1;jettySize=auto;html=1;entryX=0.5;entryY=0;entryDx=0;entryDy=0;" edge="1" parent="1" source="IprLaiHBzlhglAPSM-9q-74" target="IprLaiHBzlhglAPSM-9q-72">
          <mxGeometry relative="1" as="geometry" />
        </mxCell>
        <mxCell id="IprLaiHBzlhglAPSM-9q-74" value="while (!beenden)" style="ellipse;whiteSpace=wrap;html=1;" vertex="1" parent="1">
          <mxGeometry x="640" y="240" width="100" height="40" as="geometry" />
        </mxCell>
        <mxCell id="IprLaiHBzlhglAPSM-9q-76" value="msgReceive" style="ellipse;whiteSpace=wrap;html=1;" vertex="1" parent="1">
          <mxGeometry x="690" y="315" width="80" height="35" as="geometry" />
        </mxCell>
        <mxCell id="IprLaiHBzlhglAPSM-9q-77" value="&lt;span style=&quot;color: rgb(0, 0, 0); font-family: Helvetica; font-size: 12px; font-style: normal; font-variant-ligatures: normal; font-variant-caps: normal; font-weight: 400; letter-spacing: normal; orphans: 2; text-align: center; text-indent: 0px; text-transform: none; widows: 2; word-spacing: 0px; -webkit-text-stroke-width: 0px; background-color: rgb(251, 251, 251); text-decoration-thickness: initial; text-decoration-style: initial; text-decoration-color: initial; float: none; display: inline !important;&quot;&gt;empfangen&lt;/span&gt;" style="rounded=0;orthogonalLoop=1;jettySize=auto;html=1;entryX=0.5;entryY=0;entryDx=0;entryDy=0;exitX=0.702;exitY=0.978;exitDx=0;exitDy=0;exitPerimeter=0;" edge="1" parent="1" source="IprLaiHBzlhglAPSM-9q-74" target="IprLaiHBzlhglAPSM-9q-76">
          <mxGeometry x="-0.0053" relative="1" as="geometry">
            <mxPoint x="685" y="289" as="sourcePoint" />
            <mxPoint x="650" y="325" as="targetPoint" />
            <mxPoint as="offset" />
          </mxGeometry>
        </mxCell>
        <mxCell id="IprLaiHBzlhglAPSM-9q-78" value="getType" style="ellipse;whiteSpace=wrap;html=1;" vertex="1" parent="1">
          <mxGeometry x="640" y="385" width="80" height="35" as="geometry" />
        </mxCell>
        <mxCell id="IprLaiHBzlhglAPSM-9q-79" style="rounded=0;orthogonalLoop=1;jettySize=auto;html=1;entryX=0.5;entryY=0;entryDx=0;entryDy=0;exitX=0.314;exitY=0.929;exitDx=0;exitDy=0;exitPerimeter=0;" edge="1" parent="1" source="IprLaiHBzlhglAPSM-9q-76" target="IprLaiHBzlhglAPSM-9q-78">
          <mxGeometry relative="1" as="geometry">
            <mxPoint x="714.684458756913" y="348.66640464548095" as="sourcePoint" />
          </mxGeometry>
        </mxCell>
        <mxCell id="IprLaiHBzlhglAPSM-9q-88" value="forMe" style="edgeLabel;html=1;align=center;verticalAlign=middle;resizable=0;points=[];" vertex="1" connectable="0" parent="IprLaiHBzlhglAPSM-9q-79">
          <mxGeometry x="-0.3894" y="2" relative="1" as="geometry">
            <mxPoint as="offset" />
          </mxGeometry>
        </mxCell>
        <mxCell id="IprLaiHBzlhglAPSM-9q-81" value="forward" style="ellipse;whiteSpace=wrap;html=1;" vertex="1" parent="1">
          <mxGeometry x="730" y="385" width="80" height="35" as="geometry" />
        </mxCell>
        <mxCell id="IprLaiHBzlhglAPSM-9q-82" style="rounded=0;orthogonalLoop=1;jettySize=auto;html=1;entryX=0.5;entryY=0;entryDx=0;entryDy=0;exitX=0.65;exitY=0.949;exitDx=0;exitDy=0;exitPerimeter=0;" edge="1" parent="1" source="IprLaiHBzlhglAPSM-9q-76" target="IprLaiHBzlhglAPSM-9q-81">
          <mxGeometry relative="1" as="geometry">
            <mxPoint x="746.1599999999996" y="349.23" as="sourcePoint" />
            <mxPoint x="690" y="395" as="targetPoint" />
          </mxGeometry>
        </mxCell>
        <mxCell id="IprLaiHBzlhglAPSM-9q-89" value="!forMe" style="edgeLabel;html=1;align=center;verticalAlign=middle;resizable=0;points=[];" vertex="1" connectable="0" parent="IprLaiHBzlhglAPSM-9q-82">
          <mxGeometry x="-0.319" relative="1" as="geometry">
            <mxPoint as="offset" />
          </mxGeometry>
        </mxCell>
        <mxCell id="IprLaiHBzlhglAPSM-9q-83" value="showMsg" style="ellipse;whiteSpace=wrap;html=1;" vertex="1" parent="1">
          <mxGeometry x="590" y="455" width="80" height="35" as="geometry" />
        </mxCell>
        <mxCell id="IprLaiHBzlhglAPSM-9q-84" style="rounded=0;orthogonalLoop=1;jettySize=auto;html=1;entryX=0.5;entryY=0;entryDx=0;entryDy=0;exitX=0.319;exitY=0.998;exitDx=0;exitDy=0;exitPerimeter=0;" edge="1" parent="1" source="IprLaiHBzlhglAPSM-9q-78" target="IprLaiHBzlhglAPSM-9q-83">
          <mxGeometry relative="1" as="geometry">
            <mxPoint x="664.684458756938" y="418.6664046454539" as="sourcePoint" />
          </mxGeometry>
        </mxCell>
        <mxCell id="IprLaiHBzlhglAPSM-9q-90" value="CM" style="edgeLabel;html=1;align=center;verticalAlign=middle;resizable=0;points=[];" vertex="1" connectable="0" parent="IprLaiHBzlhglAPSM-9q-84">
          <mxGeometry x="-0.2183" y="4" relative="1" as="geometry">
            <mxPoint as="offset" />
          </mxGeometry>
        </mxCell>
        <mxCell id="IprLaiHBzlhglAPSM-9q-86" value="updateTable" style="ellipse;whiteSpace=wrap;html=1;" vertex="1" parent="1">
          <mxGeometry x="680" y="455" width="80" height="35" as="geometry" />
        </mxCell>
        <mxCell id="IprLaiHBzlhglAPSM-9q-87" style="rounded=0;orthogonalLoop=1;jettySize=auto;html=1;entryX=0.5;entryY=0;entryDx=0;entryDy=0;exitX=0.663;exitY=0.939;exitDx=0;exitDy=0;exitPerimeter=0;" edge="1" parent="1" source="IprLaiHBzlhglAPSM-9q-78" target="IprLaiHBzlhglAPSM-9q-86">
          <mxGeometry relative="1" as="geometry">
            <mxPoint x="696.1599999999996" y="419.23" as="sourcePoint" />
            <mxPoint x="640" y="465" as="targetPoint" />
          </mxGeometry>
        </mxCell>
        <mxCell id="IprLaiHBzlhglAPSM-9q-91" value="RM" style="edgeLabel;html=1;align=center;verticalAlign=middle;resizable=0;points=[];" vertex="1" connectable="0" parent="IprLaiHBzlhglAPSM-9q-87">
          <mxGeometry x="-0.1531" y="2" relative="1" as="geometry">
            <mxPoint as="offset" />
          </mxGeometry>
        </mxCell>
      </root>
    </mxGraphModel>
  </diagram>
</mxfile>
